<svg width="27" height="15" viewBox="0 0 27 15" fill="none" xmlns="http://www.w3.org/2000/svg">
<path d="M16.138 11.5108C17.094 11.2018 18.318 13.5508 19.621 14.4498C20.599 15.1308 21.348 14.9838 21.348 14.9838L24.821 14.9338C24.821 14.9338 26.636 14.8218 25.778 13.3798C25.707 13.2598 25.275 12.3108 23.193 10.3578C21.016 8.31477 21.311 8.64577 23.932 5.11377C25.529 2.96077 26.168 1.64577 25.968 1.08577C25.776 0.54677 24.603 0.68677 24.603 0.68677L20.69 0.71377C20.309 0.71477 19.986 0.83277 19.839 1.22877C19.836 1.23277 19.218 2.89477 18.394 4.30777C16.653 7.29677 15.958 7.45577 15.67 7.26877C15.009 6.83577 15.176 5.53177 15.176 4.60477C15.176 1.70777 15.608 0.49977 14.33 0.18777C13.903 0.0837698 13.591 0.0157698 12.502 0.00576984C11.11 -0.0152302 9.92797 0.00576985 9.25797 0.33477C8.81297 0.55777 8.47197 1.04677 8.67897 1.07477C8.93897 1.10977 9.52197 1.23477 9.83397 1.66077C10.235 2.21277 10.223 3.44977 10.223 3.44977C10.223 3.44977 10.452 6.86077 9.68297 7.28377C9.15497 7.57377 8.43297 6.98177 6.87997 4.26777C6.08697 2.87977 5.48797 1.34577 5.48797 1.34577C5.48797 1.34577 5.37197 1.06077 5.16197 0.90477C4.91197 0.71977 4.56197 0.66077 4.56197 0.66077L0.84797 0.68477C0.84797 0.68477 0.28997 0.70077 0.0849697 0.94677C-0.0970303 1.16477 0.0699697 1.61477 0.0699697 1.61477C0.0699697 1.61477 2.97897 8.49577 6.27297 11.9618C9.29297 15.1438 12.725 14.9328 12.725 14.9328H14.28C14.28 14.9328 14.749 14.8788 14.989 14.6208C15.213 14.3808 15.203 13.9298 15.203 13.9298C15.203 13.9298 15.172 11.8208 16.138 11.5108Z" fill="whitez"/>
</svg>
